<?xml version="1.0" encoding="utf-8"?>
<svg viewBox="136.309 139.149 728.664 737.183" xmlns="http://www.w3.org/2000/svg">
  <g id="g1" transform="matrix(1, 0, 0, 1, -86.1491394042969, 21.53728485107422)">
    <path style="stroke: rgb(0, 0, 0); fill: rgb(255, 255, 255);" d="M 558.43 173.163 C 546.179 151.724 304.691 290.696 324.988 326.215 C 264.876 328.619 268.787 640.193 311.074 638.502 C 311.074 712.295 589.35 830.559 589.35 807.013 C 608.844 848.785 879.099 651.824 870.718 633.864 C 930.873 636.729 863.995 302.558 841.345 301.479 C 872.213 276.49 612.725 129.21 558.43 173.163 Z"/>
    <g id="g2">
      <path style="display:inline;fill:#78defe" d="M 643.507 728.593 C 633.686 724.927 628.008 714.524 629.351 702.654 C 633.509 665.904 723.835 497.1 757.19 463.745 C 766.757 454.178 776.325 451.24 787.416 454.464 C 799.205 457.891 809.681 472.089 816.761 494.233 C 823.478 515.243 826.895 538.688 826.885 563.711 C 826.87 604.37 818.994 623.068 790.906 649.124 C 757.458 680.152 703.687 715.121 671.891 726.523 C 662.628 729.845 649.438 730.807 643.507 728.593 Z M 484.615 690.473 C 471.468 685.647 456.226 666.344 427.497 618.14 C 384.124 545.366 345.994 465.706 343.351 442.346 C 341.936 429.835 348.489 418.816 359.051 415.947 C 365.36 414.233 377.061 415.343 385.891 418.492 C 417.518 429.77 471.439 464.83 504.906 495.876 C 532.994 521.932 540.87 540.63 540.885 581.289 C 540.894 606.312 537.478 629.757 530.761 650.767 C 523.812 672.502 513.224 687.042 501.897 690.406 C 495.444 692.322 489.713 692.344 484.615 690.473 L 484.615 690.473 Z M 579.195 410.988 C 561.595 408.559 541.448 401.373 513.391 387.517 C 475.861 368.982 448.12 348.225 442.247 334.282 C 440.503 330.141 440.503 319.859 442.247 315.718 C 448.12 301.775 475.861 281.018 513.391 262.483 C 559.938 239.495 584.48 234.386 612.891 241.769 C 660.166 254.054 720.987 289.768 732.494 312 C 734.881 316.612 735.341 318.711 735.341 325 C 735.341 331.289 734.881 333.388 732.494 338 C 721.029 360.152 659.349 396.414 613.391 408.021 C 600.975 411.157 588.353 412.252 579.195 410.988 L 579.195 410.988 Z" id="path12"/>
      <path style="display:inline;fill:#0089b4" d="M 570.028 815.893 C 479.27 807.825 357.211 737.389 307.033 664.127 C 282.432 628.209 268.1 578.782 263.942 515.517 C 258.82 437.588 274.748 357.724 304.625 311.533 C 346.349 247.027 442.787 182.144 529.891 159.974 C 556.862 153.11 584.396 150.57 606.391 152.917 C 699.058 162.806 818.07 233.052 869.683 308.324 C 909.774 366.791 924.56 474.198 905.799 570.673 C 894.779 627.338 875.493 663.767 836.259 702.022 C 786.339 750.696 713.967 791.494 647.391 808.491 C 618.721 815.81 594.824 818.097 570.028 815.893 Z M 612.763 780.459 C 692.839 768.852 795.026 708.358 839.606 646.169 C 854.802 624.972 865.889 596.695 872.395 562.542 C 886.918 486.314 878.545 399 851.567 345.341 C 842.262 326.831 830.518 311.705 809.756 291.484 C 793.05 275.214 779.134 264.066 757.391 249.535 C 708.482 216.847 659.678 196.121 613.391 188.381 C 599.973 186.137 574.755 186.142 561.391 188.392 C 494.448 199.662 416.369 241.374 363.833 293.935 C 335.942 321.839 321.385 346.213 311.023 382.36 C 291.859 449.213 293.088 537.435 314.061 600.455 C 324.489 631.789 337.761 652.023 365.633 679.081 C 406.168 718.432 463.013 751.886 520.891 770.452 C 533.74 774.574 558.111 780.192 567.891 781.288 C 577.353 782.348 603.003 781.874 612.763 780.459 L 612.763 780.459 Z M 579.813 758.726 C 577.957 757.476 575.395 754.904 574.12 753.011 L 571.801 749.57 L 571.893 623.035 C 571.944 553.441 571.965 495.511 571.939 494.302 C 571.902 492.584 569.984 491.076 563.141 487.383 C 455.235 429.16 407.162 400.337 390.805 384.052 C 369.998 363.338 370.389 337.376 391.832 315.847 C 402.173 305.465 408.926 303.672 417.65 308.994 C 427.391 314.935 428.242 327.484 419.493 336.167 C 413.466 342.149 409.891 347.739 409.891 351.182 C 409.891 360.608 445.989 384.115 537.391 434.211 C 578.706 456.854 586.831 461 589.891 461 C 592.952 461 601.077 456.854 642.391 434.211 C 733.794 384.115 769.891 360.608 769.891 351.182 C 769.891 347.739 766.317 342.149 760.289 336.167 C 751.541 327.484 752.392 314.935 762.132 308.994 C 770.856 303.672 777.61 305.465 787.951 315.847 C 804.251 332.212 808.527 351.885 799.723 370 C 789.99 390.025 752.38 414.138 616.576 487.419 C 611.728 490.035 607.57 492.699 607.337 493.338 C 607.104 493.977 606.57 551.908 606.152 622.074 L 605.391 749.648 L 602.731 753.668 C 601.267 755.879 598.499 758.433 596.579 759.344 C 591.449 761.778 583.931 761.501 579.813 758.726 L 579.813 758.726 Z" id="path2"/>
    </g>
  </g>
</svg>